<?xml version="1.0" encoding="utf-8"?>
<!-- Generator: Adobe Illustrator 22.0.1, SVG Export Plug-In . SVG Version: 6.00 Build 0)  -->
<svg version="1.1" id="Capa_1" xmlns="http://www.w3.org/2000/svg" xmlns:xlink="http://www.w3.org/1999/xlink" x="0px" y="0px"
	 viewBox="158.9 404 36 34" enable-background="new 158.9 404 36 34" xml:space="preserve">
<g>
	<g>
		<path fill="#B7342D" d="M186.7,425c-0.7-0.7-1.5-1.1-2.4-1.1c-0.9,0-1.7,0.4-2.4,1.1l-2.2,2.2c-0.2-0.1-0.4-0.2-0.5-0.3
			c-0.3-0.1-0.5-0.2-0.7-0.4c-2.1-1.3-4-3.1-5.8-5.3c-0.9-1.1-1.5-2.1-1.9-3c0.6-0.5,1.1-1.1,1.6-1.6c0.2-0.2,0.4-0.4,0.6-0.6
			c1.5-1.5,1.5-3.4,0-4.9l-1.9-1.9c-0.2-0.2-0.4-0.4-0.7-0.7c-0.4-0.4-0.9-0.9-1.3-1.3c-0.7-0.7-1.5-1-2.4-1c-0.9,0-1.7,0.4-2.4,1
			c0,0,0,0,0,0l-2.4,2.4c-0.9,0.9-1.4,2-1.5,3.3c-0.2,2.1,0.4,4,0.9,5.3c1.1,3.1,2.9,6,5.4,9c3.1,3.7,6.8,6.6,11.1,8.7
			c1.6,0.8,3.8,1.7,6.2,1.8c0.1,0,0.3,0,0.4,0c1.6,0,3-0.6,4.1-1.8c0,0,0,0,0,0c0.4-0.4,0.8-0.9,1.2-1.3c0.3-0.3,0.6-0.6,0.9-0.9
			c0.7-0.7,1.1-1.6,1.1-2.5c0-0.9-0.4-1.7-1.1-2.4L186.7,425z M189.2,432.5C189.2,432.5,189.2,432.5,189.2,432.5
			c-0.3,0.3-0.6,0.6-0.9,0.9c-0.5,0.4-0.9,0.9-1.4,1.4c-0.7,0.8-1.6,1.1-2.7,1.1c-0.1,0-0.2,0-0.3,0c-2.1-0.1-4.1-1-5.5-1.7
			c-4-1.9-7.5-4.7-10.5-8.2c-2.4-2.9-4-5.6-5.1-8.5c-0.7-1.8-0.9-3.1-0.8-4.4c0.1-0.8,0.4-1.5,1-2.1l2.4-2.4
			c0.3-0.3,0.7-0.5,1.1-0.5c0.4,0,0.8,0.3,1,0.5c0,0,0,0,0,0c0.4,0.4,0.8,0.8,1.3,1.3c0.2,0.2,0.4,0.5,0.7,0.7l1.9,1.9
			c0.8,0.8,0.8,1.4,0,2.2c-0.2,0.2-0.4,0.4-0.6,0.6c-0.6,0.6-1.2,1.2-1.8,1.7c0,0,0,0,0,0c-0.6,0.6-0.5,1.2-0.4,1.6c0,0,0,0,0,0.1
			c0.5,1.2,1.2,2.4,2.3,3.7l0,0c2,2.4,4,4.3,6.3,5.7c0.3,0.2,0.6,0.3,0.9,0.5c0.3,0.1,0.5,0.2,0.7,0.4c0,0,0.1,0,0.1,0
			c0.2,0.1,0.5,0.2,0.7,0.2c0.6,0,1-0.4,1.1-0.5l2.4-2.4c0.2-0.2,0.6-0.5,1.1-0.5c0.4,0,0.8,0.3,1,0.5c0,0,0,0,0,0l3.9,3.9
			C189.9,431,189.9,431.7,189.2,432.5z"/>
		<path fill="#B7342D" d="M178.3,412.2c1.9,0.3,3.5,1.2,4.9,2.5c1.3,1.3,2.2,3,2.5,4.9c0.1,0.5,0.5,0.8,0.9,0.8c0.1,0,0.1,0,0.2,0
			c0.5-0.1,0.9-0.6,0.8-1.1c-0.4-2.2-1.4-4.3-3.1-5.9c-1.6-1.6-3.7-2.7-5.9-3.1c-0.5-0.1-1,0.3-1.1,0.8
			C177.4,411.6,177.7,412.1,178.3,412.2z"/>
		<path fill="#B7342D" d="M193.7,419c-0.6-3.7-2.4-7.1-5.1-9.7c-2.7-2.7-6-4.4-9.7-5.1c-0.5-0.1-1,0.3-1.1,0.8
			c-0.1,0.5,0.3,1,0.8,1.1c3.3,0.6,6.3,2.1,8.7,4.5c2.4,2.4,4,5.4,4.5,8.7c0.1,0.5,0.5,0.8,0.9,0.8c0.1,0,0.1,0,0.2,0
			C193.4,420,193.7,419.5,193.7,419z"/>
	</g>
</g>
</svg>
