<?xml version="1.0" encoding="utf-8"?>
<!-- Generator: Adobe Illustrator 22.0.1, SVG Export Plug-In . SVG Version: 6.00 Build 0)  -->
<svg version="1.1" id="Слой_1" xmlns="http://www.w3.org/2000/svg" xmlns:xlink="http://www.w3.org/1999/xlink" x="0px" y="0px"
	 viewBox="185 292 60 33.8" enable-background="new 185 292 60 33.8" xml:space="preserve">
<path fill="#CFD8DC" d="M237.5,322c-3.5,0-6.4-2.4-7.3-5.6h-7.7v-15h7.7c0.8-3.2,3.8-5.6,7.3-5.6c4.1,0,7.5,3.4,7.5,7.5
	c0,2.2-1,4.3-2.5,5.6c1.6,1.4,2.5,3.4,2.5,5.6C245,318.7,241.6,322,237.5,322z"/>
<path fill="#CFD8DC" d="M192.5,322c-4.1,0-7.5-3.4-7.5-7.5c0-2.2,1-4.3,2.5-5.6c-1.6-1.4-2.5-3.4-2.5-5.6c0-4.1,3.4-7.5,7.5-7.5
	c3.5,0,6.4,2.4,7.3,5.6h7.7v15h-7.7C198.9,319.6,196,322,192.5,322z"/>
<g>
	<path fill="#E64A19" d="M213.1,299.5h3.8v3.8h-3.8V299.5z"/>
	<path fill="#E64A19" d="M213.1,307h3.8v3.8h-3.8V307z"/>
	<path fill="#E64A19" d="M213.1,314.5h3.8v3.8h-3.8V314.5z"/>
	<path fill="#E64A19" d="M213.1,322h3.8v3.8h-3.8V322z"/>
	<path fill="#E64A19" d="M213.1,292h3.8v3.8h-3.8V292z"/>
</g>
<path fill="#B0BEC5" d="M237.5,318.3c-3.5,0-6.4-2.4-7.3-5.6h-7.7v3.8h7.7c0.8,3.2,3.8,5.6,7.3,5.6c4.1,0,7.5-3.4,7.5-7.5
	c0-0.7-0.1-1.3-0.3-1.9C243.9,315.9,241,318.3,237.5,318.3z"/>
<path fill="#B0BEC5" d="M192.5,318.3c-3.5,0-6.4-2.4-7.2-5.6c-0.2,0.6-0.3,1.2-0.3,1.9c0,4.1,3.4,7.5,7.5,7.5c3.5,0,6.4-2.4,7.3-5.6
	h7.7v-3.8h-7.7C198.9,315.9,196,318.3,192.5,318.3z"/>
<path fill="#FFFFFF" d="M190.6,299.5h3.8v3.8h-3.8V299.5z"/>
<path fill="#FFFFFF" d="M235.6,299.5h3.8v3.8h-3.8V299.5z"/>
</svg>
