<?xml version="1.0" encoding="utf-8"?>
<!-- Generator: Adobe Illustrator 22.0.1, SVG Export Plug-In . SVG Version: 6.00 Build 0)  -->
<svg version="1.1" id="Layer_1" xmlns="http://www.w3.org/2000/svg" xmlns:xlink="http://www.w3.org/1999/xlink" x="0px" y="0px"
	 viewBox="29.6 164.9 370.8 512" enable-background="new 29.6 164.9 370.8 512" xml:space="preserve">
<path fill="#E1E1E1" d="M400.4,305.1v338.8c0,18.2-14.8,33-33,33H62.6c-18.2,0-33-14.8-33-33v-446c0-18.2,14.8-33,33-33h197.6
	L400.4,305.1z"/>
<g>
	<rect x="120.2" y="421.9" fill="#FFFFFF" width="189.6" height="21.1"/>
	<rect x="120.2" y="469" fill="#FFFFFF" width="189.6" height="21.1"/>
	<rect x="120.2" y="516.1" fill="#FFFFFF" width="189.6" height="21.1"/>
	<rect x="120.2" y="563.1" fill="#FFFFFF" width="134.9" height="21.1"/>
</g>
<polygon fill="#6D6D6D" points="279.3,302.1 400.4,352 400.4,305.1 331.8,284.9 "/>
<path fill="#CECECE" d="M400.4,305.1H293.2c-18.2,0-33-14.8-33-33V164.9L400.4,305.1z"/>
</svg>
