<?xml version="1.0" encoding="utf-8"?>
<!-- Generator: Adobe Illustrator 22.0.1, SVG Export Plug-In . SVG Version: 6.00 Build 0)  -->
<svg version="1.1" id="Слой_1" xmlns="http://www.w3.org/2000/svg" xmlns:xlink="http://www.w3.org/1999/xlink" x="0px" y="0px"
	 viewBox="185.9 391.8 58.2 58.2" enable-background="new 185.9 391.8 58.2 58.2" xml:space="preserve">
<path fill="#B9392C" d="M239.5,396.7h-3.1v-2.1c0-1.6-1.3-2.8-2.8-2.8c-1.6,0-2.8,1.3-2.8,2.8v2.1h-1.9v-2.1c0-1.6-1.3-2.8-2.8-2.8
	c-1.6,0-2.8,1.3-2.8,2.8v2.1h-2.3c-0.5,0-0.9,0.4-0.9,0.9c0,0.5,0.4,0.9,0.9,0.9h2.3v2.1c0,1.6,1.3,2.8,2.8,2.8
	c1.6,0,2.8-1.3,2.8-2.8v-2.1h1.9v2.1c0,1.6,1.3,2.8,2.8,2.8c1.6,0,2.8-1.3,2.8-2.8v-2.1h3.1c0.6,0,1,0.5,1,1v6.9c-0.5,0-48,0-50.7,0
	v-6.9c0-0.6,0.5-1,1-1h3.1v2.1c0,1.6,1.3,2.8,2.8,2.8c1.6,0,2.8-1.3,2.8-2.8v-2.1h1.9v2.1c0,1.6,1.3,2.8,2.8,2.8
	c1.6,0,2.8-1.3,2.8-2.8v-2.1h14c0.5,0,0.9-0.4,0.9-0.9c0-0.5-0.4-0.9-0.9-0.9h-14v-2.1c0-1.6-1.3-2.8-2.8-2.8
	c-1.6,0-2.8,1.3-2.8,2.8v2.1h-1.9v-2.1c0-1.6-1.3-2.8-2.8-2.8c-1.6,0-2.8,1.3-2.8,2.8v2.1h-3.1c-1.5,0-2.8,1.2-2.8,2.8V445
	c0,2.6,2.1,4.8,4.8,4.8h1.5c0.5,0,0.9-0.4,0.9-0.9c0-0.5-0.4-0.9-0.9-0.9h-1.5c-1.7,0-3-1.4-3-3v-4.3h50.7v4.3c0,1.7-1.4,3-3,3
	h-43.1c-0.5,0-0.9,0.4-0.9,0.9c0,0.5,0.4,0.9,0.9,0.9h43.1c2.6,0,4.8-2.1,4.8-4.8c0-1.8,0-43.6,0-45.5
	C242.3,398,241,396.7,239.5,396.7z M226.8,401.3c-0.2,0.2-0.5,0.3-0.8,0.3c-0.6,0-1.1-0.5-1.1-1.1c0-3,0-2.9,0-6
	c0-0.6,0.5-1.1,1.1-1.1c0.6,0,1.1,0.5,1.1,1.1C227.1,401.1,227.2,400.9,226.8,401.3z M234.6,400.6c0,0.6-0.5,1.1-1.1,1.1
	c-0.6,0-1.1-0.5-1.1-1.1c0-3.1,0-2.9,0-6c0-0.6,0.5-1.1,1.1-1.1c0.6,0,1.1,0.5,1.1,1.1V400.6z M203.2,394.6c0-0.6,0.5-1.1,1.1-1.1
	c0.6,0,1.1,0.5,1.1,1.1v6c0,0.6-0.5,1.1-1.1,1.1c-0.6,0-1.1-0.5-1.1-1.1C203.2,398.8,203.2,396.4,203.2,394.6z M195.7,394.6
	c0-0.6,0.5-1.1,1.1-1.1c0.6,0,1.1,0.5,1.1,1.1v6c0,0.6-0.5,1.1-1.1,1.1c-0.6,0-1.1-0.5-1.1-1.1C195.7,398.8,195.7,396.4,195.7,394.6
	z M198.5,439h-8.7v-9.1h8.7V439z M198.5,428.2h-8.7v-9.1h8.7V428.2z M198.5,417.2h-8.7c0-1.9,0-7.2,0-9.1h8.7V417.2z M209,439h-8.7
	v-9.1h8.7V439z M209,428.2h-8.7v-9.1h8.7V428.2z M209,417.2h-8.7v-9.1h8.7V417.2z M219.5,439h-8.7v-9.1h8.7V439z M219.5,428.2h-8.7
	v-9.1h8.7V428.2z M219.5,417.2h-8.7v-9.1h8.7V417.2z M230,439h-8.7v-9.1h8.7V439z M230,428.2h-8.7v-9.1h8.7V428.2z M230,417.2h-8.7
	v-9.1h8.7V417.2z M240.5,439h-8.7v-9.1h8.7V439z M240.5,428.2h-8.7v-9.1h8.7V428.2z M240.5,417.2h-8.7v-9.1h8.7V417.2z"/>
<path fill="#B9392C" d="M224,426.9c0.4,0.4,1,0.3,1.3-0.1l4.2-5.3c0.3-0.4,0.2-0.9-0.1-1.2c-0.4-0.3-0.9-0.2-1.2,0.1l-3.6,4.5
	l-1.3-1.3c-0.3-0.3-0.9-0.3-1.2,0c-0.3,0.3-0.3,0.9,0,1.2L224,426.9z"/>
<path fill="#B9392C" d="M193.2,415.9c0.3,0,0.5-0.1,0.7-0.3l4.2-5.3c0.3-0.4,0.2-0.9-0.1-1.2c-0.4-0.3-0.9-0.2-1.2,0.1l-3.6,4.5
	l-1.3-1.3c-0.3-0.3-0.9-0.3-1.2,0c-0.3,0.3-0.3,0.9,0,1.2C192.7,415.8,192.7,415.9,193.2,415.9z"/>
<path fill="#B9392C" d="M203.6,437.8c0.3,0,0.5-0.1,0.7-0.3l4.2-5.3c0.3-0.4,0.2-0.9-0.1-1.2c-0.4-0.3-0.9-0.2-1.2,0.1l-3.6,4.5
	l-1.3-1.3c-0.3-0.3-0.9-0.3-1.2,0c-0.3,0.3-0.3,0.9,0,1.2C203.1,437.7,203.1,437.8,203.6,437.8z"/>
</svg>
