<?xml version="1.0" encoding="utf-8"?>
<!-- Generator: Adobe Illustrator 22.0.1, SVG Export Plug-In . SVG Version: 6.00 Build 0)  -->
<svg version="1.1" id="Слой_1" xmlns="http://www.w3.org/2000/svg" xmlns:xlink="http://www.w3.org/1999/xlink" x="0px" y="0px"
	 viewBox="181 386.9 68 68" enable-background="new 181 386.9 68 68" xml:space="preserve">
<path fill="#CFD8DC" d="M217.9,426.6c-1.7-1.7-4.1-2.6-6.5-2.5c0.1-2.4-0.7-4.7-2.5-6.5c-3.2-3.2-8.8-3.2-12,0
	c-2.8,2.8-3.2,7.1-1.3,10.3L181,442.4v1.4l11.1,11.1h0.4l15-15c3.2,1.9,7.6,1.4,10.3-1.3C221.2,435.3,221.2,429.9,217.9,426.6z"/>
<path fill="#B0BEC5" d="M217.9,434.2c-2.7,2.7-7.1,3.2-10.3,1.3L190,452.8l2.1,2.1h0.4l15-15c3.2,1.9,7.6,1.4,10.3-1.3
	c2.2-2.2,2.9-5.4,2.2-8.2C219.7,431.8,219,433.1,217.9,434.2z"/>
<path fill="#CFD8DC" d="M238.3,386.9H237l-14.5,14.5c-3.2-1.9-7.6-1.4-10.3,1.3c-3.3,3.3-3.3,8.7,0,12c1.7,1.7,4.1,2.6,6.5,2.5
	c-0.1,2.4,0.7,4.8,2.5,6.5c1.6,1.6,3.7,2.5,6,2.5c2.3,0,4.4-0.9,6-2.5c2.8-2.8,3.2-7.1,1.3-10.3l14.5-14.5v-1.4L238.3,386.9z"/>
<path fill="#B0BEC5" d="M233.1,420.5c-1.6,1.6-3.7,2.5-6,2.5c-2.3,0-4.4-0.9-6-2.5c-1.8-1.8-2-4.2-1.9-6.5c-2.4,0.1-5.4-0.7-7.1-2.5
	c-1.2-1.2-2-2.8-2.3-4.4c-0.5,2.7,0.3,5.6,2.3,7.6c1.7,1.7,4.1,2.6,6.5,2.5c-0.1,2.4,0.7,4.8,2.5,6.5c1.6,1.6,3.7,2.5,6,2.5
	c2.3,0,4.4-0.9,6-2.5c2.1-2.1,2.9-5,2.3-7.7C235.2,417.7,234.4,419.3,233.1,420.5z"/>
<g>
	<path fill="#FFFFFF" d="M229,403.9l3-3l3,3l-3,3L229,403.9z"/>
	<path fill="#FFFFFF" d="M235.4,397.5l3-3l3,3l-3,3L235.4,397.5z"/>
</g>
<g>
	<g>
		<path d="M210.4,397.1l-3.6-4.3c-0.4-0.5-1-0.5-1.5-0.1c-0.5,0.4-0.6,1-0.2,1.5l3.6,4.3c0.4,0.5,1.1,0.5,1.5,0.1
			C210.7,398.3,210.8,397.6,210.4,397.1z"/>
	</g>
</g>
<g>
	<g>
		<path d="M218,393.2l0.4-5.1c0.1-0.6-0.4-1.1-1-1.2c-0.6-0.1-1.1,0.4-1.2,1l-0.4,5.1c-0.1,0.6,0.4,1.1,1,1.2
			C217.4,394.2,217.9,393.8,218,393.2z"/>
	</g>
</g>
<g>
	<g>
		<path d="M204.7,404.3c0.1-0.6-0.4-1.1-1-1.2l-5.1-0.4c-0.6-0.1-1.1,0.4-1.2,1s0.4,1.1,1,1.2l5.1,0.4
			C204.1,405.4,204.7,404.9,204.7,404.3z"/>
	</g>
</g>
</svg>
