<?xml version="1.0" encoding="utf-8"?>
<!-- Generator: Adobe Illustrator 22.0.1, SVG Export Plug-In . SVG Version: 6.00 Build 0)  -->
<svg version="1.1" id="Слой_1" xmlns="http://www.w3.org/2000/svg" xmlns:xlink="http://www.w3.org/1999/xlink" x="0px" y="0px"
	 viewBox="181 386.9 68 68" enable-background="new 181 386.9 68 68" xml:space="preserve">
<path fill="#CFD8DC" d="M233.1,405.7l-4.7,2.7l-10.1,5.8l-2.1-3.7l9.5-5.4l5.4-3.1L233.1,405.7z"/>
<path fill="#CFD8DC" d="M235.3,440.4l-2.3,3.6l-4.2-2.7l-19.2-12.2l2.3-3.6l19.3,12.3L235.3,440.4z"/>
<path fill="#CFD8DC" d="M199.8,434.8l-1.5,2.3l-2.7,4.1l-3.5-2.3l2.7-4.1l1.5-2.3L199.8,434.8z"/>
<path fill="#3879A5" d="M198,446.4c0,4.7-3.8,8.5-8.5,8.5s-8.5-3.8-8.5-8.5s3.8-8.5,8.5-8.5S198,441.7,198,446.4z"/>
<path fill="#B0BEC5" d="M235.3,440.4l-2.3,3.6l-4.2-2.7c0.6-1.3,1.4-2.5,2.3-3.5L235.3,440.4z"/>
<path fill="#3879A5" d="M249,446.4c0,4.7-3.8,8.5-8.5,8.5s-8.5-3.8-8.5-8.5s3.8-8.5,8.5-8.5S249,441.7,249,446.4z"/>
<path fill="#3879A5" d="M221.4,422c0,8.8-7.1,15.9-15.9,15.9s-15.9-7.1-15.9-15.9s7.1-15.9,15.9-15.9S221.4,413.2,221.4,422z"/>
<path fill="#B0BEC5" d="M233.1,405.7l-4.7,2.7c-1.1-1-2-2.1-2.7-3.4l5.4-3.1L233.1,405.7z"/>
<path fill="#3879A5" d="M249,397.5c0,5.9-4.8,10.6-10.6,10.6s-10.6-4.8-10.6-10.6s4.8-10.6,10.6-10.6S249,391.6,249,397.5z"/>
<path fill="#FFFFFF" d="M198,416.6h4.3v4.3H198V416.6z"/>
<path fill="#FFFFFF" d="M236.3,395.4h4.3v4.3h-4.3V395.4z"/>
<g>
	<g>
		<path fill="#154870" d="M205.4,433.6c-8.1,0-14.7-6-15.8-13.8c-0.1,0.7-0.2,1.4-0.2,2.1c0,8.8,7.1,15.9,15.9,15.9
			s15.9-7.1,15.9-15.9c0-0.7-0.1-1.4-0.2-2.1C220.2,427.6,213.5,433.6,205.4,433.6z"/>
		<path fill="#154870" d="M238.4,403.9c-5.1,0-9.4-3.7-10.4-8.5c-0.1,0.7-0.2,1.4-0.2,2.1c0,5.9,4.8,10.6,10.6,10.6
			s10.6-4.8,10.6-10.6c0-0.7-0.1-1.4-0.2-2.1C247.8,400.2,243.5,403.9,238.4,403.9z"/>
		<path fill="#154870" d="M240.5,450.6c-4,0-7.2-2.7-8.2-6.4c-0.2,0.7-0.3,1.4-0.3,2.1c0,4.7,3.8,8.5,8.5,8.5s8.5-3.8,8.5-8.5
			c0-0.7-0.1-1.4-0.3-2.1C247.7,447.9,244.5,450.6,240.5,450.6z"/>
		<path fill="#154870" d="M189.5,450.6c-4,0-7.2-2.7-8.2-6.4c-0.2,0.7-0.3,1.4-0.3,2.1c0,4.7,3.8,8.5,8.5,8.5s8.5-3.8,8.5-8.5
			c0-0.7-0.1-1.4-0.3-2.1C196.7,447.9,193.5,450.6,189.5,450.6z"/>
	</g>
</g>
<g>
	<g>
		<path d="M197.6,401.6l-2.4-5c-0.3-0.5-0.9-0.7-1.4-0.5s-0.8,0.8-0.6,1.4l2.4,5c0.3,0.5,0.9,0.8,1.4,0.5S197.9,402.1,197.6,401.6z"
			/>
	</g>
</g>
<g>
	<g>
		<path d="M206,399.7l1.7-4.8c0.2-0.6-0.1-1.2-0.7-1.4s-1.2,0.1-1.4,0.7l-1.7,4.8c-0.2,0.6,0.1,1.2,0.7,1.4
			C205.1,400.6,205.8,400.3,206,399.7z"/>
	</g>
</g>
<g>
	<g>
		<path d="M190.3,407.1c0.2-0.6-0.1-1.2-0.7-1.4l-4.8-1.7c-0.6-0.2-1.2,0.1-1.4,0.7c-0.2,0.6,0.1,1.2,0.7,1.4l4.8,1.7
			C189.4,407.9,190.1,407.6,190.3,407.1z"/>
	</g>
</g>
</svg>
