<?xml version="1.0" encoding="utf-8"?>
<!-- Generator: Adobe Illustrator 22.0.1, SVG Export Plug-In . SVG Version: 6.00 Build 0)  -->
<svg version="1.1" id="Режим_изоляции"
	 xmlns="http://www.w3.org/2000/svg" xmlns:xlink="http://www.w3.org/1999/xlink" x="0px" y="0px" viewBox="200 387.2 68 68"
	 enable-background="new 200 387.2 68 68" xml:space="preserve">
<path id="Shape_9_" fill="#B02425" d="M232.3,393.2c6.2,3.5,13.1,5.6,20.2,6.3c1.2,0.1,2.2,1.1,2.2,2.3v12.5
	c0,23.6-17.9,35.4-23.9,35.4c-6,0-23.9-11.8-23.9-35.3v-12.5c0-1.2,1-2.2,2.2-2.3c7.1-0.6,14-2.7,20.2-6.2
	C230.2,392.6,231.4,392.6,232.3,393.2z"/>
<path id="Shape_10_" fill="#CE2E36" d="M230.8,447.1c-3.7-0.5-21-10.8-21-34.3v-10.7c7.3-1.1,14.4-3.4,21-6.9
	c6.6,3.4,13.6,5.8,21,6.9v10.7C251.7,436.3,234.5,446.6,230.8,447.1z"/>
<path id="Shape_11_" fill="#FFFFFF" d="M223.9,414.5c-0.5,0-0.9-0.3-1.1-0.7c-0.2-0.4-0.1-0.9,0.3-1.3l3.4-3.4
	c0.4-0.4,1.2-0.4,1.6,0c0.4,0.4,0.4,1.2,0,1.6l-3.4,3.4C224.5,414.4,224.2,414.5,223.9,414.5L223.9,414.5z"/>
<path id="Shape_1_" fill="#FFFFFF" d="M230.9,421.5c-0.5,0-0.9-0.3-1.1-0.7c-0.2-0.4-0.1-0.9,0.3-1.3l3.4-3.4c0.4-0.4,1.2-0.4,1.6,0
	c0.4,0.4,0.4,1.2,0,1.6l-3.4,3.4C231.5,421.3,231.2,421.5,230.9,421.5L230.9,421.5z"/>
<path id="Shape_12_" fill="#FFFFFF" d="M222.8,423.1c-0.5,0-0.9-0.3-1.1-0.7c-0.2-0.4-0.1-0.9,0.3-1.3l12.6-12.6
	c0.4-0.4,1.2-0.4,1.6,0c0.4,0.4,0.4,1.2,0,1.6l-12.6,12.6C223.4,423,223.1,423.1,222.8,423.1z"/>
<g>
	<g>
		<path d="M262.8,401.8l4.4-1.2c0.5-0.1,0.7-0.6,0.6-1.1c-0.1-0.5-0.6-0.8-1-0.7l-4.4,1.2c-0.5,0.1-0.8,0.6-0.6,1.1
			S262.3,401.9,262.8,401.8z"/>
	</g>
</g>
<g>
	<g>
		<path d="M263,408.9l3.7,2.1c0.4,0.2,1,0.1,1.2-0.3c0.2-0.4,0.1-1-0.3-1.2l-3.7-2.1c-0.4-0.2-1-0.1-1.2,0.3
			C262.5,408.1,262.6,408.6,263,408.9z"/>
	</g>
</g>
<g>
	<g>
		<path d="M259.4,395c0.4,0.2,1,0.1,1.2-0.3l2.1-3.7c0.2-0.4,0.1-1-0.3-1.2c-0.4-0.2-1-0.1-1.2,0.3l-2.1,3.7
			C258.8,394.2,258.9,394.8,259.4,395z"/>
	</g>
</g>
<g>
	<g>
		<path d="M207.3,441.2l-4,2.3c-0.4,0.2-0.5,0.8-0.3,1.2c0.2,0.4,0.7,0.6,1.2,0.4l4-2.3c0.4-0.2,0.6-0.8,0.3-1.2
			C208.3,441.1,207.8,440.9,207.3,441.2z"/>
	</g>
</g>
<g>
	<g>
		<path d="M205.3,434.4l-4.1-1.1c-0.5-0.1-1,0.2-1.1,0.6c-0.1,0.5,0.2,1,0.6,1.1l4.1,1.1c0.5,0.1,1-0.2,1.1-0.6
			C206,435,205.7,434.5,205.3,434.4z"/>
	</g>
</g>
<g>
	<g>
		<path d="M212.4,446.9c-0.5-0.1-1,0.2-1.1,0.6l-1.1,4.1c-0.1,0.5,0.2,1,0.6,1.1s1-0.2,1.1-0.6l1.1-4.1
			C213.1,447.5,212.8,447,212.4,446.9z"/>
	</g>
</g>
</svg>
