<?xml version="1.0" encoding="utf-8"?>
<!-- Generator: Adobe Illustrator 22.0.1, SVG Export Plug-In . SVG Version: 6.00 Build 0)  -->
<svg version="1.1" id="Capa_1" xmlns="http://www.w3.org/2000/svg" xmlns:xlink="http://www.w3.org/1999/xlink" x="0px" y="0px"
	 viewBox="-268 391.7 58.2 58.2" enable-background="new -268 391.7 58.2 58.2" xml:space="preserve">
<g>
	<path fill="#BB3E2A" d="M-227.9,420.9h-7.1c-0.4-1.4-1.5-2.5-2.9-2.9v-10.1c0-0.6-0.4-1-1-1c-0.6,0-1,0.4-1,1V418
		c-1.7,0.4-3,2-3,3.9c0,2.2,1.8,4,4,4c1.9,0,3.4-1.3,3.9-3h7.1c0.6,0,1-0.4,1-1S-227.4,420.9-227.9,420.9z M-238.9,423.9
		c-1.1,0-2-0.9-2-2s0.9-2,2-2c1.1,0,2,0.9,2,2S-237.8,423.9-238.9,423.9z"/>
	<path fill="#BB3E2A" d="M-217.8,401.5l4.1,4.1c0.2,0.2,0.4,0.3,0.7,0.3s0.5-0.1,0.7-0.3c3.2-3.2,3.2-8.3,0-11.5
		c-3.2-3.2-8.3-3.2-11.5,0c-0.2,0.2-0.3,0.4-0.3,0.7c0,0.3,0.1,0.5,0.3,0.7l4.6,4.6l-1.7,1.7c-4.8-4.3-11.1-6.9-18-6.9
		s-13.2,2.6-18,6.9l-1.7-1.7l4.6-4.6c0.2-0.2,0.3-0.4,0.3-0.7c0-0.3-0.1-0.5-0.3-0.7c-3.2-3.2-8.3-3.2-11.5,0
		c-3.2,3.2-3.2,8.3,0,11.5c0.2,0.2,0.4,0.3,0.7,0.3c0.3,0,0.5-0.1,0.7-0.3l4.1-4.1l1.7,1.7c-4.7,4.9-7.6,11.5-7.6,18.7
		c0,9.9,5.4,18.6,13.3,23.3l-3,3c-0.4,0.4-0.4,1,0,1.4c0.2,0.2,0.5,0.3,0.7,0.3s0.5-0.1,0.7-0.3l3.4-3.5c3.6,1.8,7.6,2.7,11.8,2.7
		c4.2,0,8.3-1,11.8-2.7l3.4,3.5c0.2,0.2,0.5,0.3,0.7,0.3s0.5-0.1,0.7-0.3c0.4-0.4,0.4-1,0-1.4l-3-3c8-4.7,13.3-13.4,13.3-23.3
		c0-7.3-2.9-13.9-7.6-18.7L-217.8,401.5z M-213.7,395.5c2.1,2.1,2.4,5.5,0.6,7.9l-8.5-8.5C-219.2,393.2-215.9,393.4-213.7,395.5z
		 M-264.8,403.4c-1.7-2.4-1.5-5.7,0.6-7.9c2.1-2.1,5.5-2.4,7.9-0.6L-264.8,403.4z M-238.9,446.9c-13.8,0-25-11.2-25-25
		s11.2-25,25-25c13.8,0,25,11.2,25,25S-225.1,446.9-238.9,446.9z"/>
	<path fill="#BB3E2A" d="M-238.9,401.8c0.6,0,1-0.4,1-1v-1c0-0.6-0.4-1-1-1s-1,0.4-1,1v1C-239.9,401.3-239.5,401.8-238.9,401.8z"/>
	<path fill="#BB3E2A" d="M-238.9,441.8c-0.6,0-1,0.4-1,1v1c0,0.6,0.4,1,1,1s1-0.4,1-1v-1C-237.9,442.2-238.4,441.8-238.9,441.8z"/>
	<path fill="#BB3E2A" d="M-217.9,422.8h1c0.6,0,1-0.4,1-1s-0.4-1-1-1h-1c-0.6,0-1,0.4-1,1S-218.5,422.8-217.9,422.8z"/>
	<path fill="#BB3E2A" d="M-259.9,420.8h-1c-0.6,0-1,0.4-1,1s0.4,1,1,1h1c0.6,0,1-0.4,1-1S-259.4,420.8-259.9,420.8z"/>
	<path fill="#BB3E2A" d="M-224.1,405.5l-0.7,0.7c-0.4,0.4-0.4,1,0,1.4c0.2,0.2,0.5,0.3,0.7,0.3c0.3,0,0.5-0.1,0.7-0.3l0.7-0.7
		c0.4-0.4,0.4-1,0-1.4C-223.1,405.1-223.7,405.1-224.1,405.5z"/>
	<path fill="#BB3E2A" d="M-254.5,435.9l-0.7,0.7c-0.4,0.4-0.4,1,0,1.4c0.2,0.2,0.5,0.3,0.7,0.3s0.5-0.1,0.7-0.3l0.7-0.7
		c0.4-0.4,0.4-1,0-1.4C-253.5,435.5-254.1,435.5-254.5,435.9z"/>
	<path fill="#BB3E2A" d="M-223.4,435.9c-0.4-0.4-1-0.4-1.4,0c-0.4,0.4-0.4,1,0,1.4l0.7,0.7c0.2,0.2,0.5,0.3,0.7,0.3
		c0.3,0,0.5-0.1,0.7-0.3c0.4-0.4,0.4-1,0-1.4L-223.4,435.9z"/>
	<path fill="#BB3E2A" d="M-253.8,405.5c-0.4-0.4-1-0.4-1.4,0c-0.4,0.4-0.4,1,0,1.4l0.7,0.7c0.2,0.2,0.5,0.3,0.7,0.3
		c0.3,0,0.5-0.1,0.7-0.3c0.4-0.4,0.4-1,0-1.4L-253.8,405.5z"/>
</g>
</svg>
