<?xml version="1.0" encoding="utf-8"?>
<!-- Generator: Adobe Illustrator 22.0.1, SVG Export Plug-In . SVG Version: 6.00 Build 0)  -->
<svg version="1.1" id="BACKGROUND_2" xmlns="http://www.w3.org/2000/svg" xmlns:xlink="http://www.w3.org/1999/xlink" x="0px"
	 y="0px" viewBox="0 0 177.6 263" enable-background="new 0 0 177.6 263" xml:space="preserve">
<g>
	<g>
		<path fill="#F8FAFB" d="M87.1,9.5c51.1,0,81.1,23.6,81.1,64.2c0,51.1-52.9,61.3-52.9,98.4H56.4c0-52.5,38.8-58.2,38.8-85.3
			c0-10.2-4.9-14.8-15.5-14.8c-13,0-19,8.8-19,27.8H0C0,43,32.1,9.5,87.1,9.5z M120.9,226.7c0,21.5-14.8,36.3-36.3,36.3
			c-21.1,0-36-14.8-36-36.3c0-21.2,14.8-36,36-36C106.1,190.7,120.9,205.5,120.9,226.7z"/>
	</g>
	<g>
		<g>
			<path fill="none" stroke="#FEB045" stroke-width="3" stroke-miterlimit="10" d="M95,1.5c51.1,0,81.1,23.6,81.1,64.2
				c0,51.1-52.9,61.3-52.9,98.4H64.3c0-52.5,38.8-58.2,38.8-85.3c0-10.2-4.9-14.8-15.5-14.8c-13,0-19,8.8-19,27.8H7.9
				C7.9,35,40,1.5,95,1.5z M128.8,218.6c0,21.5-14.8,36.3-36.3,36.3c-21.1,0-36-14.8-36-36.3c0-21.2,14.8-36,36-36
				C114,182.7,128.8,197.5,128.8,218.6z"/>
		</g>
	</g>
</g>
</svg>
