<?xml version="1.0" encoding="utf-8"?>
<!-- Generator: Adobe Illustrator 22.0.1, SVG Export Plug-In . SVG Version: 6.00 Build 0)  -->
<svg version="1.1" id="Capa_1" xmlns="http://www.w3.org/2000/svg" xmlns:xlink="http://www.w3.org/1999/xlink" x="0px" y="0px"
	 viewBox="86.2 391.5 58.2 58.2" enable-background="new 86.2 391.5 58.2 58.2" xml:space="preserve">
<g>
	<g>
		<path fill="#BB3E2A" d="M133.6,394.5c0-0.7-0.9-1.1-1.8-1.3c-0.9-0.2-2.2-0.4-3.9-0.6c-3.4-0.4-7.9-0.6-12.7-0.6
			s-9.3,0.2-12.7,0.6c-1.7,0.2-3,0.4-3.9,0.6c-0.9,0.2-1.8,0.6-1.8,1.3c0,0,0,0,0,0l4.8,50.6c0,0.2,0.1,0.3,0.3,0.4h0
			c1,0.6,3.2,1.7,3.2,1.7c0.2,0.1,0.4,0,0.6-0.2c0.5-0.6,1.2-1,2-1.1c1.8-0.1,3.1,0.9,3.1,2.5c0,0.3,0.2,0.6,0.6,0.6
			c0,0,2.6,0.3,3.9,0.3s3.8-0.3,3.9-0.3h0c0.3,0,0.6-0.3,0.6-0.6c0-1.5,1.3-2.6,3.1-2.5c0.8,0.1,1.5,0.5,1.9,1.1
			c0.1,0.2,0.4,0.2,0.6,0.2c0.1,0,2.3-1.1,3.2-1.7l0,0c0.2-0.1,0.2-0.2,0.3-0.4C129.2,441.1,133.6,394.5,133.6,394.5z M131.1,409.7
			c-0.7-0.3-2-0.6-4.4-0.9c-3-0.3-7.1-0.5-11.4-0.5c-4.3,0-8.4,0.2-11.4,0.5c-2.4,0.3-3.7,0.6-4.4,0.9l-1.3-14.1
			c0.2,0.1,0.4,0.1,0.6,0.2c0.9,0.2,2.2,0.4,3.9,0.6c3.4,0.4,7.9,0.6,12.7,0.6c4.8,0,9.3-0.2,12.7-0.6c1.7-0.2,3-0.4,3.9-0.6
			c0.2-0.1,0.4-0.1,0.6-0.2L131.1,409.7z M130.4,410.6c-1.5,0.5-6.5,1.2-15.1,1.2s-13.6-0.7-15.1-1.2c1.5-0.5,6.5-1.2,15.1-1.2
			C123.9,409.4,128.9,410.1,130.4,410.6z M103.4,393.6c3.3-0.3,7.5-0.5,11.9-0.5s8.6,0.2,11.9,0.5c3.2,0.3,4.5,0.7,5.1,0.9
			c-0.6,0.2-1.9,0.6-5.1,0.9c-3.3,0.3-7.5,0.5-11.9,0.5s-8.6-0.2-11.9-0.5c-3.2-0.3-4.5-0.7-5.1-0.9
			C98.9,394.3,100.2,393.9,103.4,393.6z M110.9,445.9c-0.7-0.6-1.7-1-2.8-1c-0.8,0-1.6,0.2-2.2,0.7l-1.5-16.1
			c-0.1-0.7,0.2-1.4,0.6-1.9c0.5-0.5,1.2-0.8,1.9-0.8c0.1,0,0.2,0,0.3,0c2.1,0.3,3.7,2.1,3.7,4.2L110.9,445.9z M124.7,445.5
			c-0.6-0.4-1.4-0.7-2.2-0.7c-1.1,0-2.1,0.4-2.8,1l0-15c0-2.2,1.6-4,3.7-4.2c0.1,0,0.2,0,0.3,0c0.7,0,1.4,0.3,1.9,0.8
			c0.5,0.5,0.7,1.2,0.6,1.9L124.7,445.5z M127.7,444.8c-0.6,0.4-1.3,0.7-1.9,1l1.5-16.3c0.1-1-0.2-2-0.9-2.8
			c-0.7-0.8-1.7-1.2-2.7-1.2c-0.2,0-0.3,0-0.4,0c-2.7,0.3-4.7,2.6-4.7,5.3l0,17.1c-2.2,0.3-4.4,0.3-6.6,0l0-17.1c0-2.7-2-5-4.7-5.3
			c-0.1,0-0.3,0-0.4,0c-1,0-2,0.4-2.7,1.2c-0.7,0.8-1,1.8-0.9,2.8l1.5,16.3c-0.7-0.3-1.3-0.7-1.9-1l-3.2-33.2c0.7,0.3,2,0.5,4.2,0.8
			c3,0.3,7.1,0.5,11.4,0.5c4.3,0,8.4-0.2,11.4-0.5c2.2-0.2,3.5-0.5,4.2-0.8L127.7,444.8z"/>
		<path fill="#BB3E2A" d="M129.3,412.8c-0.3,0-0.6,0.2-0.6,0.5l-1.2,12.4c0,0.3,0.2,0.6,0.5,0.6c0,0,0,0,0.1,0
			c0.3,0,0.5-0.2,0.6-0.5l1.2-12.4C129.8,413.1,129.6,412.9,129.3,412.8z"/>
		<path fill="#BB3E2A" d="M130.7,397.4c-0.3,0-0.6,0.2-0.6,0.5l-1,10.1c0,0.3,0.2,0.6,0.5,0.6c0,0,0,0,0.1,0c0.3,0,0.5-0.2,0.6-0.5
			l1-10.1C131.3,397.7,131,397.4,130.7,397.4z"/>
		<path fill="#BB3E2A" d="M105.5,413.6c-0.9,0-1.7,0.8-1.7,1.7s0.8,1.7,1.7,1.7s1.7-0.8,1.7-1.7S106.5,413.6,105.5,413.6z
			 M105.5,415.9c-0.3,0-0.6-0.3-0.6-0.6s0.3-0.6,0.6-0.6c0.3,0,0.6,0.3,0.6,0.6S105.8,415.9,105.5,415.9z"/>
		<path fill="#BB3E2A" d="M113.3,417.2c-1.1,0-2.1,0.9-2.1,2.1c0,1.1,0.9,2.1,2.1,2.1c1.1,0,2.1-0.9,2.1-2.1
			C115.4,418.2,114.5,417.2,113.3,417.2z M113.3,420.3c-0.5,0-1-0.4-1-1c0-0.5,0.4-1,1-1c0.5,0,1,0.4,1,1
			C114.3,419.8,113.9,420.3,113.3,420.3z"/>
		<path fill="#BB3E2A" d="M124.7,414.2c-0.9,0-1.6,0.7-1.6,1.6c0,0.9,0.7,1.6,1.6,1.6c0.9,0,1.6-0.7,1.6-1.6
			C126.3,414.9,125.6,414.2,124.7,414.2z M124.7,416.3c-0.3,0-0.5-0.2-0.5-0.5s0.2-0.5,0.5-0.5c0.3,0,0.5,0.2,0.5,0.5
			S125,416.3,124.7,416.3z"/>
	</g>
</g>
</svg>
